<?xml version="1.0" encoding="utf-8"?>
<!-- Generator: Adobe Illustrator 19.0.0, SVG Export Plug-In . SVG Version: 6.00 Build 0)  -->
<svg version="1.1" id="Layer_1" xmlns="http://www.w3.org/2000/svg" xmlns:xlink="http://www.w3.org/1999/xlink" x="0px" y="0px"
	 viewBox="0 0 500 500" style="enable-background:new 0 0 500 500;" xml:space="preserve">
<style type="text/css">
	.st0{fill:#DC0000;}
</style>
<g id="XMLID_1_">
	<path id="XMLID_7_" class="st0" d="M249.1,67.5l11.3,6.5l-74.3,43.4c0,0-22.5,11.3-30.4,20c-9.8,10.7-6.8,25.9,1.9,36.5
		c21.2,26,76.2,46.7,121.3,29.7c19.1-7.2,104.9-59.1,104.9-59.1l24.4,14v183.1l-15.5,8.9V245.7l-48.9,28.1v104.8l-28.3,16.2v-60
		l17.4-10.5V280l-17.4,10c0,0-2-27.6,1.6-36.9c3.5-8.9,13.5-18.7,21.7-16.1c6,1.9,4.9,21.4,4.9,21.4s36.9-21.4,48.9-28.2
		c1.9-31.2-7.8-50.7-37.7-47.6c-13.6,1.4-24.4,8.6-33.4,14.8c-9.6,6.6-17.5,14.2-24.7,22.9c-13.7,16.4-28.4,38.9-30.3,65.6
		c-1.5,20.9,0.6,136.7,0.6,136.7l-17.3,9.9L91.9,341.6V158.4L249.1,67.5z M190.9,211c-11.4-9.4-25.5-18.2-40.8-21.7
		c-10.3-2.3-20.6-1-27.8,3.1c-19.2,10.7-24.8,39-22.9,66.8c3,44.2,19,74,42.1,97.1c15.4,15.4,40.9,34.1,63.7,35.9
		c23.8,1.9,31.2-13.8,36.5-31.6c-18-12.3-38-22.6-56.3-34.6c-3.4,2.6-3.1,5.4-8,5.6c-4.4,0.1-9.4-4.1-12.4-8
		c-5.2-7-6.9-18.1-7.4-26.6c29,15.5,57,32.1,86,47.6C246.7,286.9,223.7,237.9,190.9,211L190.9,211z M332.9,115.5l-73.7,45.3
		c0,0-19.6,12.7-32.8,11.3c-4.3-0.5-11.4-4.1-11.8-7.4c-0.6-6.2,21.7-18.1,21.7-18.1l75.5-43.2L332.9,115.5L332.9,115.5z M186,274.7
		c-9.6-5-18.9-10.4-27.8-16.1c0.9-6.8,2.1-13.4,10.5-11.8C178.5,248.9,185.7,264.7,186,274.7L186,274.7z"/>
</g>
</svg>
